<svg xmlns="http://www.w3.org/2000/svg" width="640" height="360" viewBox="0 0 640 360" role="img" aria-label="course 10">
  <defs>
    <linearGradient id="bg" x1="0" y1="0" x2="1" y2="1">
      <stop offset="0%" stop-color="#fdffb6" />
      <stop offset="55%" stop-color="#caffbf" />
      <stop offset="100%" stop-color="#386641" />
    </linearGradient>
    <linearGradient id="road" x1="0" y1="0" x2="1" y2="0">
      <stop offset="0%" stop-color="#1e2a47" />
      <stop offset="100%" stop-color="#25385f" />
    </linearGradient>
  </defs>
  <rect width="640" height="360" fill="url(#bg)" />
  <circle cx="112" cy="80" r="54" fill="#ffffff" fill-opacity="0.18" />
  <circle cx="538" cy="104" r="42" fill="#ffffff" fill-opacity="0.14" />
  <path d="M-20 300 C120 220, 220 330, 360 250 C450 200, 560 275, 680 230 L680 380 L-20 380 Z" fill="url(#road)" fill-opacity="0.78" />
  <path d="M-20 318 C120 238, 220 348, 360 268 C450 218, 560 293, 680 248" fill="#f8fbff" fill-opacity="0.34" stroke="#f8fbff" stroke-opacity="0.34" stroke-width="6" />
  <rect x="42" y="146" width="118" height="80" rx="12" fill="#ffffff" fill-opacity="0.15" />
  <rect x="212" y="122" width="144" height="98" rx="14" fill="#ffffff" fill-opacity="0.12" />
  <rect x="402" y="150" width="132" height="76" rx="12" fill="#ffffff" fill-opacity="0.13" />
</svg>
