<?xml version="1.0" standalone="no"?>
<!DOCTYPE svg PUBLIC "-//W3C//DTD SVG 20010904//EN"
 "http://www.w3.org/TR/2001/REC-SVG-20010904/DTD/svg10.dtd">
<svg version="1.0" xmlns="http://www.w3.org/2000/svg"
 width="135.000000pt" height="122.000000pt" viewBox="0 0 135.000000 122.000000"
 preserveAspectRatio="xMidYMid meet">

<g transform="translate(0.000000,122.000000) scale(0.100000,-0.100000)"
fill="#000000" stroke="none">
<path d="M435 1188 c-125 -15 -261 -101 -319 -202 -31 -53 -66 -190 -73 -286
-5 -65 -2 -82 16 -118 21 -40 91 -102 116 -102 6 0 17 11 25 24 7 14 33 35 59
47 25 12 54 26 63 30 10 5 43 12 75 15 45 5 63 12 81 33 l23 26 -6 -25 c-32
-131 -45 -204 -45 -251 0 -48 5 -62 30 -94 33 -41 87 -85 105 -85 6 0 21 14
34 30 12 17 39 38 59 47 20 9 48 21 61 27 35 16 251 14 287 -2 83 -39 120 -62
129 -81 14 -30 35 -26 85 16 49 43 79 101 80 157 0 71 -32 230 -57 280 -64
127 -216 232 -348 239 -36 2 -42 6 -64 47 -14 25 -52 72 -85 106 -99 98 -204
137 -331 122z m166 -51 c99 -51 143 -133 125 -230 -5 -27 -14 -38 -38 -48 -17
-7 -60 -40 -95 -72 l-63 -59 -83 4 c-71 4 -91 9 -133 34 -98 61 -140 174 -96
260 48 93 136 143 249 144 61 0 80 -5 134 -33z m385 -263 c63 -26 115 -74 140
-128 28 -60 29 -79 9 -137 -18 -50 -52 -89 -110 -128 -37 -24 -49 -26 -140
-26 -108 0 -145 11 -203 63 -35 32 -72 109 -72 152 0 72 64 159 145 196 62 29
172 33 231 8z"/>
<path d="M350 484 c0 -39 4 -53 16 -58 23 -9 26 -4 31 49 4 30 2 45 -6 45 -6
0 -11 -5 -11 -12 0 -6 -7 -3 -15 8 -13 17 -14 15 -15 -32z"/>
<path d="M970 294 c0 -4 7 -12 16 -19 14 -10 15 -15 4 -35 -10 -18 -14 -20
-21 -9 -6 9 -9 -2 -9 -33 0 -52 16 -71 37 -43 25 35 12 145 -17 145 -6 0 -10
-3 -10 -6z"/>
<path d="M793 235 c-7 -11 -13 -14 -13 -7 0 6 -4 12 -10 12 -15 0 -12 -64 4
-86 22 -29 38 -5 34 52 -3 43 -4 47 -15 29z"/>
</g>
</svg>
