<?xml version="1.0" standalone="no"?>
<!DOCTYPE svg PUBLIC "-//W3C//DTD SVG 20010904//EN"
 "http://www.w3.org/TR/2001/REC-SVG-20010904/DTD/svg10.dtd">
<svg version="1.0" xmlns="http://www.w3.org/2000/svg"
 width="182.000000pt" height="127.000000pt" viewBox="0 0 182.000000 127.000000"
 preserveAspectRatio="xMidYMid meet">

<g transform="translate(0.000000,127.000000) scale(0.100000,-0.100000)"
fill="#000000" stroke="none">
<path d="M400 1242 c-46 -7 -172 -74 -217 -115 -60 -55 -87 -106 -113 -212
-34 -137 -37 -212 -11 -262 21 -42 69 -86 107 -97 16 -5 23 0 32 18 15 33 44
51 121 76 77 24 199 28 207 6 3 -8 -4 -55 -17 -103 -13 -51 -23 -120 -23 -164
-1 -67 2 -80 27 -116 23 -33 103 -93 111 -82 1 2 10 17 20 32 9 15 34 35 54
44 20 9 48 21 61 27 32 15 241 14 272 0 13 -7 40 -18 59 -25 34 -13 74 -46 82
-70 10 -30 116 60 140 120 15 38 11 126 -11 231 -22 109 -26 105 97 97 125 -8
242 -56 242 -98 0 -27 20 -24 67 10 67 48 86 89 85 181 -2 96 -23 203 -52 261
-66 128 -242 233 -375 223 -152 -11 -308 -117 -355 -241 -11 -29 -20 -60 -20
-67 0 -23 -23 -33 -68 -30 -55 4 -58 6 -71 61 -18 71 -53 124 -125 189 -90 83
-214 123 -326 106z m170 -43 c246 -108 144 -426 -130 -406 -109 7 -204 69
-229 148 -25 78 -14 132 40 193 78 89 205 115 319 65z m907 -15 c94 -38 147
-109 147 -199 1 -52 -4 -66 -32 -107 -84 -121 -295 -143 -408 -41 -53 48 -68
82 -69 150 0 52 4 67 30 104 71 101 215 141 332 93z m-460 -346 c63 -32 111
-84 128 -139 42 -143 -99 -281 -271 -267 -75 6 -162 53 -199 106 -26 38 -30
53 -30 111 0 58 4 72 28 104 83 110 225 144 344 85z"/>
<path d="M1460 623 c0 -5 5 -14 11 -20 6 -6 8 -21 4 -33 -6 -18 -9 -20 -16 -9
-6 9 -9 -2 -9 -33 0 -48 8 -62 27 -50 15 10 25 82 15 116 -7 27 -32 49 -32 29z"/>
<path d="M373 585 c-7 -11 -13 -14 -13 -7 0 6 -4 12 -10 12 -15 0 -12 -63 3
-84 12 -16 14 -16 26 -3 7 9 11 34 9 59 -3 39 -4 41 -15 23z"/>
<path d="M994 271 c19 -20 11 -55 -10 -47 -10 4 -14 -5 -14 -35 0 -42 24 -65
41 -38 22 34 5 139 -23 139 -6 0 -4 -8 6 -19z"/>
<path d="M788 234 c-11 -10 -10 -66 1 -83 19 -29 41 -4 41 46 -1 43 -2 46 -14
30 -13 -17 -15 -17 -18 -2 -1 9 -6 13 -10 9z"/>
</g>
</svg>
