<?xml version="1.0" standalone="no"?>
<!DOCTYPE svg PUBLIC "-//W3C//DTD SVG 20010904//EN"
 "http://www.w3.org/TR/2001/REC-SVG-20010904/DTD/svg10.dtd">
<svg version="1.0" xmlns="http://www.w3.org/2000/svg"
 width="183.000000pt" height="150.000000pt" viewBox="0 0 183.000000 150.000000"
 preserveAspectRatio="xMidYMid meet">

<g transform="translate(0.000000,150.000000) scale(0.100000,-0.100000)"
fill="#000000" stroke="none">
<path d="M870 1473 c-24 -5 -124 -51 -165 -76 -32 -19 -90 -83 -110 -121 l-19
-34 -90 1 c-86 1 -96 -1 -170 -37 -88 -42 -156 -99 -191 -160 -28 -50 -66
-197 -72 -287 -6 -77 16 -132 69 -172 48 -36 75 -42 82 -19 17 51 112 91 238
99 74 5 89 3 94 -10 3 -9 -4 -56 -17 -104 -13 -51 -23 -120 -23 -164 -1 -67 2
-80 27 -116 23 -33 103 -93 111 -82 1 2 10 17 20 32 9 15 34 35 54 44 20 9 48
21 61 27 31 14 240 14 272 0 84 -37 121 -60 131 -78 6 -12 12 -22 13 -24 2 -2
16 3 33 12 35 18 89 78 104 115 15 38 11 126 -11 231 -16 80 -17 92 -4 97 33
13 188 -6 238 -28 28 -12 52 -23 55 -24 23 -5 50 -29 50 -45 0 -28 20 -25 67
9 67 48 86 89 85 181 -2 94 -23 203 -50 256 -29 56 -94 127 -149 162 -70 44
-138 64 -222 66 -74 1 -74 1 -93 36 -26 47 -114 136 -163 165 -71 42 -178 62
-255 48z m186 -48 c88 -43 133 -122 119 -211 -5 -35 -16 -53 -61 -96 -69 -67
-92 -77 -177 -78 -89 0 -120 14 -194 93 -60 62 -63 68 -63 114 0 161 209 260
376 178z m-476 -227 c246 -105 144 -425 -130 -405 -141 9 -240 99 -240 216 0
52 12 81 51 125 77 88 204 114 319 64z m907 -14 c94 -38 147 -109 147 -199 1
-52 -4 -66 -32 -107 -82 -119 -278 -142 -398 -47 -59 46 -78 85 -78 156 -1 52
3 67 29 104 71 100 215 141 332 93z m-482 -246 c-11 -50 -20 -56 -73 -51 -55
6 -57 8 -65 48 -6 27 -5 28 5 8 9 -19 19 -23 60 -23 33 0 48 4 48 13 0 12 19
37 28 37 2 0 0 -15 -3 -32z m23 -101 c147 -72 179 -233 67 -336 -51 -47 -136
-75 -211 -69 -75 6 -162 53 -199 106 -26 38 -30 52 -30 112 0 61 3 72 31 107
38 47 97 87 149 101 54 14 140 5 193 -21z"/>
<path d="M1470 623 c0 -5 5 -14 11 -20 6 -6 8 -21 4 -33 -6 -18 -9 -20 -16 -9
-6 9 -9 -2 -9 -32 0 -50 5 -60 25 -52 30 11 27 141 -3 151 -7 2 -12 0 -12 -5z"/>
<path d="M383 585 c-7 -11 -13 -14 -13 -7 0 6 -4 12 -10 12 -15 0 -12 -63 3
-84 12 -16 14 -16 26 -3 7 9 11 34 9 59 -3 39 -4 41 -15 23z"/>
<path d="M1004 271 c19 -20 11 -55 -10 -47 -10 4 -14 -5 -14 -35 0 -42 24 -65
41 -38 22 34 5 139 -23 139 -6 0 -4 -8 6 -19z"/>
<path d="M798 234 c-11 -10 -10 -66 1 -83 19 -29 41 -4 41 46 -1 43 -2 46 -14
30 -13 -17 -15 -17 -18 -2 -1 9 -6 13 -10 9z"/>
</g>
</svg>
