<?xml version="1.0" standalone="no"?>
<!DOCTYPE svg PUBLIC "-//W3C//DTD SVG 20010904//EN"
 "http://www.w3.org/TR/2001/REC-SVG-20010904/DTD/svg10.dtd">
<svg version="1.0" xmlns="http://www.w3.org/2000/svg"
 width="135.000000pt" height="133.000000pt" viewBox="0 0 135.000000 133.000000"
 preserveAspectRatio="xMidYMid meet">

<g transform="translate(0.000000,133.000000) scale(0.100000,-0.100000)"
fill="#000000" stroke="none">
<path d="M590 1293 c-61 -10 -166 -58 -232 -104 -14 -11 -29 -19 -33 -19 -10
0 -103 -98 -132 -139 -33 -45 -46 -84 -83 -231 -42 -166 -50 -290 -22 -352 26
-61 81 -120 138 -149 45 -23 47 -23 58 -5 28 47 58 73 108 95 122 54 157 61
295 61 94 0 134 -4 184 -21 83 -27 119 -42 119 -51 0 -5 8 -8 18 -8 23 0 72
-43 72 -64 0 -28 28 -29 72 -3 55 32 100 80 130 137 56 109 7 444 -85 578 -38
56 -130 147 -188 187 -110 75 -282 111 -419 88z m221 -39 c88 -28 170 -92 216
-172 25 -41 28 -57 28 -132 0 -74 -4 -91 -27 -131 -34 -58 -104 -122 -161
-148 -68 -31 -174 -43 -260 -30 -133 20 -232 93 -284 206 -22 47 -25 65 -21
123 16 213 274 358 509 284z"/>
<path d="M810 420 c0 -7 10 -20 22 -29 20 -17 21 -21 8 -51 -12 -28 -15 -30
-25 -16 -10 13 -13 6 -18 -41 -6 -61 10 -97 39 -86 34 13 44 137 16 192 -17
35 -42 53 -42 31z"/>
<path d="M523 285 c2 -78 3 -80 27 -80 24 0 25 3 28 73 3 70 -9 96 -22 50 -6
-22 -7 -22 -21 7 -13 28 -14 26 -12 -50z"/>
</g>
</svg>
