<?xml version="1.0" standalone="no"?>
<!DOCTYPE svg PUBLIC "-//W3C//DTD SVG 20010904//EN"
 "http://www.w3.org/TR/2001/REC-SVG-20010904/DTD/svg10.dtd">
<svg version="1.0" xmlns="http://www.w3.org/2000/svg"
 width="196.000000pt" height="146.000000pt" viewBox="0 0 196.000000 146.000000"
 preserveAspectRatio="xMidYMid meet">

<g transform="translate(0.000000,146.000000) scale(0.100000,-0.100000)"
fill="#000000" stroke="none">
<path d="M265 1437 c-167 -56 -265 -175 -265 -323 0 -108 47 -182 151 -235 26
-13 45 -32 54 -52 7 -18 25 -43 39 -56 25 -24 26 -25 8 -45 -30 -36 -82 -114
-82 -125 0 -5 20 -13 45 -17 48 -7 69 3 80 37 5 16 16 19 68 19 l62 0 -3 -74
c-5 -116 40 -191 149 -247 26 -13 45 -32 54 -52 7 -18 25 -43 39 -56 25 -24
26 -25 8 -45 -30 -36 -82 -114 -82 -125 0 -5 20 -13 45 -17 48 -7 69 3 80 37
6 17 16 19 86 19 80 0 80 0 90 -30 10 -28 14 -30 66 -30 52 0 54 1 48 23 -16
50 -39 89 -72 118 -35 30 -35 31 -14 45 12 9 30 32 41 53 12 24 36 49 63 64
94 56 147 148 147 259 0 44 2 48 24 48 24 0 24 -2 19 -53 -8 -83 19 -163 70
-209 23 -21 61 -48 84 -60 27 -14 46 -33 52 -50 6 -15 21 -39 35 -53 l26 -26
-35 -52 c-19 -29 -42 -61 -50 -72 -22 -29 -19 -33 32 -41 44 -6 49 -5 73 25
25 30 29 31 102 31 75 0 76 0 87 -30 9 -28 13 -30 60 -30 40 0 51 3 51 16 0
27 -32 86 -67 120 l-33 33 24 26 c13 14 29 39 36 55 7 17 16 30 21 30 17 0
101 63 117 88 9 15 20 29 24 32 20 15 38 86 38 148 0 53 -6 79 -26 120 -31 63
-111 137 -184 170 -110 51 -282 36 -383 -32 -20 -14 -37 -23 -37 -21 0 12 24
55 31 55 17 0 101 63 117 88 9 15 20 29 24 32 20 15 38 86 38 148 0 87 -31
153 -103 218 -73 66 -144 97 -238 102 -137 8 -267 -47 -343 -145 -100 -129
-82 -308 40 -393 20 -14 11 -15 -90 -15 -111 0 -113 0 -193 -40 -81 -40 -81
-40 -67 -14 7 15 33 38 57 52 129 76 183 231 122 354 -32 62 -114 142 -186
179 -45 23 -69 28 -144 31 -56 2 -105 -2 -130 -10z m196 -13 c64 -19 131 -59
178 -108 l34 -35 -17 -41 c-24 -61 -22 -209 4 -242 17 -23 18 -27 4 -46 -15
-22 -103 -87 -109 -80 -1 1 -4 30 -6 63 -4 52 -8 63 -33 82 -66 51 -211 53
-288 4 l-42 -26 3 -64 3 -64 -39 23 c-21 12 -48 33 -60 46 -21 22 -21 26 -7
59 20 49 19 197 -2 242 l-17 34 39 41 c51 52 99 82 171 107 71 25 113 26 184
5z m853 -33 c33 -17 83 -50 110 -74 l50 -44 -20 -39 c-27 -54 -28 -222 -1
-251 9 -11 17 -23 17 -27 0 -9 -52 -54 -91 -79 -26 -17 -28 -17 -33 0 -3 10
-6 40 -8 66 -1 40 -7 52 -30 69 -68 48 -236 45 -295 -6 -22 -19 -26 -31 -27
-79 -1 -33 -7 -62 -15 -69 -8 -8 -11 -8 -8 -2 4 7 -14 25 -43 44 -28 18 -50
37 -50 43 0 5 8 34 17 63 14 45 15 66 6 136 -6 46 -14 93 -18 105 -5 17 1 29
28 56 122 123 275 156 411 88z m-824 -372 c41 -23 50 -46 50 -128 0 -56 -25
-100 -75 -131 -31 -19 -46 -22 -102 -17 -69 5 -100 21 -136 70 -26 34 -30 168
-7 191 23 22 77 34 159 35 57 1 81 -4 111 -20z m791 -9 c43 -23 48 -33 50
-117 2 -54 -2 -67 -25 -98 -36 -46 -74 -65 -135 -65 -46 0 -55 4 -110 53 l-60
52 -1 71 c0 84 12 100 92 120 64 16 138 10 189 -16z m-386 -151 c51 -15 77
-31 109 -63 22 -23 53 -50 68 -60 l27 -18 -20 -40 c-18 -35 -20 -55 -17 -139
2 -80 6 -101 21 -111 16 -12 16 -15 2 -35 -16 -23 -104 -88 -110 -81 -1 1 -4
30 -6 63 -4 52 -8 63 -33 82 -61 47 -198 53 -278 12 -48 -25 -52 -32 -49 -102
l3 -60 -39 23 c-21 12 -48 33 -60 46 -21 22 -21 26 -7 59 20 49 19 197 -2 242
l-17 34 39 41 c51 52 99 82 171 107 74 26 115 26 198 0z m839 -28 c33 -17 83
-50 110 -74 l50 -44 -20 -39 c-27 -54 -28 -222 -1 -251 9 -11 17 -23 17 -27 0
-9 -52 -54 -91 -79 -26 -17 -28 -17 -33 0 -3 10 -6 40 -8 66 -1 40 -7 52 -29
68 -68 48 -226 46 -293 -4 -30 -23 -31 -28 -29 -86 1 -33 0 -61 -3 -61 -11 0
-114 74 -114 82 0 4 7 35 16 68 14 49 15 72 7 137 -6 43 -14 88 -18 100 -6 19
2 31 41 69 120 113 265 141 398 75z m-1420 -99 c7 -11 -40 -124 -56 -133 -17
-11 -40 -11 -57 0 -19 12 1 38 32 43 16 2 25 16 37 50 14 44 31 60 44 40z
m156 1 c0 -10 -20 -40 -20 -31 0 3 -3 13 -6 22 -4 11 -1 16 10 16 9 0 16 -3
16 -7z m-31 -25 c16 -42 -3 -58 -69 -58 -63 0 -67 4 -49 44 11 24 23 28 92 34
10 1 21 -8 26 -20z m821 8 c0 -8 -4 -18 -10 -21 -5 -3 -10 3 -10 14 0 12 5 21
10 21 6 0 10 -6 10 -14z m-26 -20 c10 -38 -2 -56 -38 -56 -27 0 -35 6 -49 35
-9 20 -17 38 -17 40 0 3 22 5 49 5 43 0 50 -3 55 -24z m-322 -238 c39 -22 48
-46 48 -124 0 -53 -30 -106 -77 -135 -29 -18 -45 -21 -100 -16 -69 5 -100 21
-136 70 -27 35 -30 168 -5 193 45 46 198 52 270 12z m788 -8 c44 -23 49 -33
51 -117 2 -54 -2 -67 -25 -98 -35 -46 -74 -65 -133 -65 -64 1 -125 29 -151 72
-17 28 -22 51 -22 106 0 89 9 99 115 126 36 9 126 -4 165 -24z m-966 -278 c7
-11 -40 -124 -56 -133 -17 -11 -40 -11 -57 0 -12 8 -12 12 -2 25 8 9 22 16 32
16 11 0 24 11 29 25 6 14 14 36 20 50 9 25 24 32 34 17z m173 -44 c17 -44 25
-54 49 -58 36 -6 39 -34 4 -38 -28 -3 -60 16 -64 38 -2 8 -8 26 -13 40 -23 55
-25 70 -10 70 8 0 23 -23 34 -52z m-71 36 c13 -3 25 -19 32 -40 l10 -34 -74 0
c-41 0 -74 2 -74 5 0 3 7 21 14 40 15 36 39 43 92 29z m689 -4 c9 -15 -25
-107 -47 -127 -11 -10 -26 -13 -43 -9 -32 8 -28 25 10 46 19 10 34 31 43 58
14 42 25 51 37 32z m180 -45 c20 -45 28 -55 48 -55 24 0 42 -21 30 -34 -13
-13 -61 -5 -75 12 -15 18 -48 99 -48 120 0 29 22 8 45 -43z m-51 21 c3 -13 9
-31 12 -40 5 -14 -4 -16 -70 -16 -42 0 -76 2 -76 5 0 3 7 21 14 40 14 33 17
35 64 35 44 0 51 -3 56 -24z"/>
<path d="M292 1389 c-105 -52 -108 -198 -6 -256 107 -62 254 16 254 134 0 33
-7 50 -32 79 -58 66 -137 82 -216 43z"/>
<path d="M1095 1386 c-31 -14 -60 -44 -82 -83 -46 -82 40 -203 144 -203 59 0
102 20 141 64 27 31 32 45 32 87 0 36 -6 60 -22 81 -41 58 -144 84 -213 54z"/>
<path d="M446 977 c3 -10 9 -15 12 -12 3 3 0 11 -7 18 -10 9 -11 8 -5 -6z"/>
<path d="M280 965 c-16 -20 -5 -45 20 -45 16 0 20 7 20 30 0 33 -19 40 -40 15z
m30 -17 c0 -19 -2 -20 -10 -8 -13 19 -13 30 0 30 6 0 10 -10 10 -22z"/>
<path d="M420 950 c0 -25 21 -42 37 -29 7 7 13 16 13 21 0 6 -6 6 -14 -1 -11
-10 -17 -8 -25 6 -8 14 -10 15 -11 3z"/>
<path d="M302 838 c9 -28 148 -36 148 -8 0 9 -26 8 -36 -3 -12 -12 -54 -8 -86
9 -23 12 -29 13 -26 2z"/>
<path d="M1076 958 c-5 -10 -6 -25 -2 -33 6 -17 36 -21 36 -4 0 5 -4 8 -9 4
-5 -3 -11 7 -13 22 -4 23 -6 25 -12 11z"/>
<path d="M1221 956 c-9 -11 -10 -20 -1 -36 15 -28 35 -20 35 15 0 32 -16 42
-34 21z m29 -11 c0 -8 -4 -15 -10 -15 -5 0 -10 7 -10 15 0 8 5 15 10 15 6 0
10 -7 10 -15z"/>
<path d="M1090 830 c0 -28 139 -36 155 -10 4 6 -4 6 -20 0 -37 -14 -75 -12
-107 4 -16 8 -28 11 -28 6z"/>
<path d="M712 829 c-32 -16 -49 -34 -67 -70 -31 -60 -31 -68 -1 -121 62 -111
218 -117 291 -11 37 55 35 111 -7 159 -58 66 -137 82 -216 43z"/>
<path d="M1515 826 c-40 -18 -70 -53 -85 -99 -29 -91 47 -187 150 -187 56 0
99 20 138 64 27 31 32 45 32 87 0 36 -6 60 -22 81 -41 58 -144 84 -213 54z"/>
<path d="M866 417 c3 -10 9 -15 12 -12 3 3 0 11 -7 18 -10 9 -11 8 -5 -6z"/>
<path d="M700 405 c-16 -19 -5 -47 17 -43 11 2 18 12 18 27 0 29 -17 37 -35
16z m30 -17 c0 -19 -2 -20 -10 -8 -13 19 -13 30 0 30 6 0 10 -10 10 -22z"/>
<path d="M840 390 c0 -25 21 -42 37 -29 7 7 13 16 13 21 0 6 -6 6 -14 -1 -11
-10 -17 -8 -25 6 -8 14 -10 15 -11 3z"/>
<path d="M720 281 c0 -26 125 -40 147 -17 13 13 -9 19 -27 8 -26 -16 -59 -15
-92 2 -16 8 -28 11 -28 7z"/>
<path d="M1496 398 c-5 -10 -6 -25 -2 -33 6 -17 36 -21 36 -4 0 5 -4 8 -9 4
-5 -3 -11 7 -13 22 -4 23 -6 25 -12 11z"/>
<path d="M1641 396 c-9 -11 -10 -20 -1 -36 15 -28 35 -20 35 15 0 32 -16 42
-34 21z m29 -11 c0 -8 -4 -15 -10 -15 -5 0 -10 7 -10 15 0 8 5 15 10 15 6 0
10 -7 10 -15z"/>
<path d="M1510 270 c0 -28 139 -36 155 -10 4 6 -4 6 -20 0 -37 -14 -75 -12
-107 4 -16 8 -28 11 -28 6z"/>
</g>
</svg>
