<?xml version="1.0" encoding="UTF-8"?>
<svg version="1.1" xmlns="http://www.w3.org/2000/svg" width="145" height="170">
<path d="M0 0 C47.85 0 95.7 0 145 0 C145 56.1 145 112.2 145 170 C97.15 170 49.3 170 0 170 C0 113.9 0 57.8 0 0 Z " fill="#000000" transform="translate(0,0)"/>
<path d="M0 0 C2.43063107 1.70542865 4.81876631 3.45971166 7.1875 5.25 C7.7652417 5.68658936 8.3429834 6.12317871 8.93823242 6.57299805 C10.33357571 7.66435053 11.67274752 8.82678477 13 10 C13 10.66 13 11.32 13 12 C13.556875 12.20625 14.11375 12.4125 14.6875 12.625 C17.92501302 14.55000774 19.68231141 17.03850902 22 20 C21.47599609 21.30324219 21.47599609 21.30324219 20.94140625 22.6328125 C20.48636719 23.78523438 20.03132813 24.93765625 19.5625 26.125 C19.11003906 27.26195312 18.65757813 28.39890625 18.19140625 29.5703125 C15.6441402 36.90309805 15.81680449 44.1375913 15.8125 51.8125 C15.80025391 52.95009766 15.78800781 54.08769531 15.77539062 55.25976562 C15.52162 66.61224348 15.52162 66.61224348 20.125 76.5625 C20.74375 77.036875 21.3625 77.51125 22 78 C19.35398909 88.34349721 9.41549987 93.38966675 1 99 C0.01 99 -0.98 99 -2 99 C-3.00966498 95.55031133 -3.26633919 92.20501739 -3.5 88.625 C-3.78006965 84.35393791 -4.23635566 80.21277128 -5 76 C-4.34 76 -3.68 76 -3 76 C-9.88027905 68.25968607 -18.8702007 65.24272796 -29 64 C-45.95054602 63.06727154 -59.29374414 65.58076477 -73 76 C-72.34 76.66 -71.68 77.32 -71 78 C-71.0234375 80.50390625 -71.0234375 80.50390625 -71.375 83.5625 C-71.9074084 88.75504781 -72.08694168 93.7834989 -72 99 C-79.91525048 96.09440172 -88.09614013 91.0592246 -94 85 C-95.29900103 81.82466415 -95.37357583 80.01476127 -94.1875 76.79296875 C-93.49639524 75.26085047 -92.77120043 73.74350854 -92.0078125 72.24609375 C-86.91387793 60.89333259 -88.96367748 41.76983083 -92 30 C-93.10382796 27.86228346 -93.10382796 27.86228346 -94.375 26.0625 C-96 23 -96 23 -95.47265625 21.13671875 C-93.80322505 18.09394415 -91.76468299 15.13634595 -89 13 C-88.34 13 -87.68 13 -87 13 C-86.75765625 12.41863281 -86.5153125 11.83726563 -86.265625 11.23828125 C-79.77583363 -0.23903496 -62.64362047 -6.07759538 -50.53125 -9.55688477 C-32.76418018 -14.10849809 -15.21751553 -10.05134194 0 0 Z " fill="#FFFFFF" transform="translate(109,14)"/>
<path d="M0 0 C5.91723546 6.22287779 5.07271298 19.59760791 5.03515625 27.71142578 C4.72295393 32.62966713 2.83626621 36.15209735 -0.109375 39.98828125 C-0.78033203 40.9628125 -0.78033203 40.9628125 -1.46484375 41.95703125 C-5.46115367 47.2406679 -11.04477372 51.26991753 -17.64697266 52.43676758 C-20.29775477 52.58581458 -22.89361841 52.57368234 -25.546875 52.48828125 C-26.86268555 52.49214844 -26.86268555 52.49214844 -28.20507812 52.49609375 C-38.11827443 52.34998916 -45.93444943 50.19181538 -53.12890625 43.2265625 C-58.59616267 37.04759223 -60.92619433 31.17907416 -61.109375 22.98828125 C-61.14804687 22.03695312 -61.18671875 21.085625 -61.2265625 20.10546875 C-61.54600389 6.22751492 -61.54600389 6.22751492 -59.109375 0.98828125 C-45.19341462 -12.76240644 -15.25870298 -8.56407336 0 0 Z " fill="#FFFFFF" transform="translate(100.109375,86.01171875)"/>
<path d="M0 0 C0.33 0 0.66 0 1 0 C1.24234375 0.845625 1.4846875 1.69125 1.734375 2.5625 C5.25715659 15.46715393 5.25715659 15.46715393 14 25 C14.73347656 25.77730469 15.46695312 26.55460937 16.22265625 27.35546875 C19.2267191 30.2158774 22.38234898 32.16930404 26 34.125 C27.20856915 34.79384489 28.41690665 35.46310858 29.625 36.1328125 C31.66998824 37.26418331 33.72816986 38.37269334 35.80859375 39.4375 C38.49777291 41.3549183 39.04692711 42.7668746 40.0625 45.875 C41.50810661 49.92269852 43.14547049 52.73768056 46 56 C46 56.66 46 57.32 46 58 C47.65 58.66 49.3 59.32 51 60 C51 64.80705296 49.34938955 66.5036433 46.4375 70 C41.07669407 76.68119678 35.73398918 83.79803247 33 92 C39.96779403 93.32719886 46.92988911 93.08825381 54 93 C54.268125 92.29875 54.53625 91.5975 54.8125 90.875 C56.06127515 87.85164964 57.53712018 84.92575964 59 82 C68.9 82 78.8 82 89 82 C94 92 94 92 94 94 C94.66 94.33 95.32 94.66 96 95 C64.32 95 32.64 95 0 95 C0 63.65 0 32.3 0 0 Z " fill="#FFFFFF" transform="translate(0,75)"/>
<path d="M0 0 C0.74781738 0.00016113 1.49563477 0.00032227 2.26611328 0.00048828 C9.77652694 0.15482298 15.51510641 2.21840428 21.75 6.375 C21.75 7.035 21.75 7.695 21.75 8.375 C22.34296875 8.643125 22.9359375 8.91125 23.546875 9.1875 C27.66745393 11.40852127 29.93703312 14.04500143 31.75 18.375 C32.2204962 21.42264824 32.30877341 24.41934913 32.3125 27.5 C32.31588379 28.66402344 32.31588379 28.66402344 32.31933594 29.8515625 C32.08609264 37.9837466 28.5931409 43.27844553 23.203125 49.1875 C15.84267442 55.75095911 6.87542716 58.74710972 -2.859375 58.5859375 C-11.31490459 57.83986136 -19.27606781 53.63463973 -25.04296875 47.453125 C-29.71069175 41.50610014 -32.90005712 35.5405857 -32.59765625 27.8359375 C-31.4700892 19.8542831 -28.34471715 12.72884557 -22.25 7.375 C-15.29911933 2.1618395 -8.73845467 -0.0175824 0 0 Z " fill="#000000" transform="translate(72.25,8.625)"/>
<path d="M0 0 C0.33 0 0.66 0 1 0 C1 32.34 1 64.68 1 98 C-9.89 98 -20.78 98 -32 98 C-31.01 97.505 -31.01 97.505 -30 97 C-32.0374657 88.9260676 -34.46688331 82.52675273 -39.609375 75.92578125 C-41 74 -41 74 -41 72 C-41.66 72 -42.32 72 -43 72 C-44.33333333 70.66666667 -45.66666667 69.33333333 -47 68 C-47.99 67.67 -48.98 67.34 -50 67 C-50 65.68 -50 64.36 -50 63 C-48.33333333 61.66666667 -46.66666667 60.33333333 -45 59 C-42.2433229 55.32710951 -40.23830203 51.7678621 -38.875 47.375 C-36.3807304 42.88531471 -33.41815648 41.76954241 -28.9140625 39.5234375 C-20.2263665 34.98161251 -13.40580169 28.10870254 -8 20 C-7.60941406 19.46503906 -7.21882813 18.93007812 -6.81640625 18.37890625 C-2.85910321 12.64636447 -1.38806177 6.77103301 0 0 Z " fill="#FFFFFF" transform="translate(144,72)"/>
<path d="M0 0 C22.44 0 44.88 0 68 0 C68 0.33 68 0.66 68 1 C67.23558594 1.08636719 66.47117187 1.17273438 65.68359375 1.26171875 C43.72957578 4.14136732 24.81452446 13.39324653 11.0078125 31.03515625 C6.06031359 38.34089881 2.69562679 46.35230336 1 55 C0.67 55 0.34 55 0 55 C0 36.85 0 18.7 0 0 Z " fill="#FFFFFF" transform="translate(0,0)"/>
<path d="M0 0 C20.79 0 41.58 0 63 0 C63 17.16 63 34.32 63 52 C61.17619822 49.26429733 59.82204493 46.52678817 58.43774414 43.5546875 C54.64865053 35.53442395 50.48197315 29.17119361 44 23 C43.2678125 22.28328125 42.535625 21.5665625 41.78125 20.828125 C30.35184978 10.12312338 15.59016343 2.84536628 0 1 C0 0.67 0 0.34 0 0 Z " fill="#FFFFFF" transform="translate(82,0)"/>
<path d="M0 0 C6.6 0 13.2 0 20 0 C25 11.75 25 11.75 25 14 C15.43 14.33 5.86 14.66 -4 15 C-3 8 -3 8 0 0 Z " fill="#FFFFFF" transform="translate(64,141)"/>
<path d="M0 0 C2.31 0.33 4.62 0.66 7 1 C1.83326189 22.71710244 1.83326189 22.71710244 -6 28 C-10.29942699 28.79109457 -14.29589311 28.46940459 -18 26 C-17.61502006 23.76711635 -17.10506663 22.16343698 -15.875 20.25 C-13.00254099 18.33502733 -10.35516417 18.81008505 -7 19 C-5.33727191 14.93641685 -3.84427386 10.82466586 -2.375 6.6875 C-2.14554688 6.04232422 -1.91609375 5.39714844 -1.6796875 4.73242188 C-1.1189182 3.15525821 -0.55933709 1.57767216 0 0 Z " fill="#FFFFFF" transform="translate(55,139)"/>
<path d="M0 0 C1.65 0 3.3 0 5 0 C6.33934716 2.95564708 7.67044247 5.9149378 9 8.875 C9.3815625 9.71675781 9.763125 10.55851563 10.15625 11.42578125 C10.5171875 12.23144531 10.878125 13.03710938 11.25 13.8671875 C11.58515625 14.61081543 11.9203125 15.35444336 12.265625 16.12060547 C13 18 13 18 13 20 C16.3 20 19.6 20 23 20 C23.66 22.31 24.32 24.62 25 27 C22.58489385 28.20755308 20.88261951 28.23572748 18.1875 28.3125 C16.90939453 28.36857422 16.90939453 28.36857422 15.60546875 28.42578125 C11.90775336 27.82150692 10.57927772 26.74820805 8 24 C6.2754047 20.77011571 4.97614127 17.42333545 3.6875 14 C3.32849609 13.09765625 2.96949219 12.1953125 2.59960938 11.265625 C1.01954626 7.19658626 0 4.43097252 0 0 Z " fill="#FFFFFF" transform="translate(86,139)"/>
<path d="M0 0 C3.01345872 2.43020865 3.93592581 3.71905931 4.8125 7.5625 C5 11 5 11 4 14 C2.35 14.33 0.7 14.66 -1 15 C-5.05 9.6 -5.05 9.6 -4.8125 6.75 C-4.22784987 5.49075356 -3.62088926 4.24177852 -3 3 C-2.34 3 -1.68 3 -1 3 C-0.67 2.01 -0.34 1.02 0 0 Z " fill="#000000" transform="translate(86,90)"/>
<path d="M0 0 C1.5635348 3.12706959 1.39958487 6.57982443 1 10 C0.01 11.485 0.01 11.485 -1 13 C-5.75 12.125 -5.75 12.125 -8 11 C-8.35095944 7.22718603 -8.24849965 5.40824943 -6.25 2.125 C-4 0 -4 0 0 0 Z " fill="#000000" transform="translate(61,91)"/>
<path d="M0 0 C0.74830078 0.433125 0.74830078 0.433125 1.51171875 0.875 C10.0816673 5.30614037 18.70270589 4.71449352 28 3 C28 2.34 28 1.68 28 1 C28.66 1 29.32 1 30 1 C29.875 2.875 29.875 2.875 29 5 C24.59919731 6.8785516 20.75542541 7.27085713 16 7.25 C14.2365625 7.25773437 14.2365625 7.25773437 12.4375 7.265625 C7.55440378 6.88829484 4.06651058 5.71100705 0 3 C0 2.01 0 1.02 0 0 Z " fill="#000000" transform="translate(58,117)"/>
<path d="M0 0 C0.66 0.33 1.32 0.66 2 1 C2.40729228 3.32156597 2.74438677 5.6568787 3 8 C2.01 8.33 1.02 8.66 0 9 C-0.99 7.68 -1.98 6.36 -3 5 C-2.01 3.35 -1.02 1.7 0 0 Z " fill="#FFFFFF" transform="translate(86,92)"/>
<path d="M0 0 C1.5 1.1875 1.5 1.1875 3 3 C3.1875 5.6875 3.1875 5.6875 3 8 C2.01 8.33 1.02 8.66 0 9 C-0.87890625 2.84765625 -0.87890625 2.84765625 -1 1 C-0.67 0.67 -0.34 0.34 0 0 Z " fill="#FFFFFF" transform="translate(58,92)"/>
</svg>
