<?xml version="1.0" standalone="no"?>
<!DOCTYPE svg PUBLIC "-//W3C//DTD SVG 20010904//EN"
 "http://www.w3.org/TR/2001/REC-SVG-20010904/DTD/svg10.dtd">
<svg version="1.0" xmlns="http://www.w3.org/2000/svg"
 width="178.000000pt" height="176.000000pt" viewBox="0 0 178.000000 176.000000"
 preserveAspectRatio="xMidYMid meet">

<g transform="translate(0.000000,176.000000) scale(0.100000,-0.100000)"
fill="#000000" stroke="none">
<path d="M720 1744 c-196 -43 -341 -123 -473 -263 -117 -125 -208 -294 -205
-385 1 -47 -19 -162 -33 -188 -12 -23 5 -167 33 -268 72 -265 281 -489 545
-583 154 -56 305 -69 453 -41 203 38 368 128 501 272 107 116 184 267 215 421
26 133 16 317 -25 441 -44 131 -102 229 -196 328 -140 148 -302 237 -499 271
-81 15 -237 12 -316 -5z m405 -33 c377 -111 627 -443 627 -831 0 -238 -88
-447 -258 -612 -111 -107 -238 -180 -384 -219 -121 -33 -319 -33 -440 0 -349
93 -603 390 -639 748 -6 53 -8 101 -4 106 13 21 32 126 33 177 1 130 137 355
286 471 108 85 264 157 387 179 87 15 312 5 392 -19z"/>
<path d="M810 1519 c-123 -14 -263 -73 -352 -150 -50 -42 -64 -84 -32 -91 9
-2 98 0 198 4 100 4 300 5 446 1 146 -4 272 -6 280 -4 49 9 32 49 -43 105
-143 106 -323 155 -497 135z m245 -33 c123 -33 327 -158 300 -184 -6 -6 -87
-7 -225 -1 -202 8 -466 5 -626 -6 -105 -8 -108 10 -10 80 169 120 372 160 561
111z"/>
<path d="M271 771 c-21 -13 -15 -71 14 -142 58 -144 168 -268 287 -326 83 -40
110 -46 134 -29 18 14 18 16 -2 128 -25 131 -59 213 -118 276 -56 61 -103 82
-205 93 -104 11 -93 11 -110 0z m226 -47 c90 -43 149 -138 183 -292 24 -107
25 -141 4 -149 -8 -3 -52 13 -98 35 -133 66 -240 192 -296 349 -33 91 -27 97
73 89 57 -4 98 -14 134 -32z"/>
<path d="M1390 770 c-156 -15 -249 -110 -299 -302 -29 -111 -33 -174 -14 -194
20 -19 45 -14 133 29 126 62 240 197 296 353 28 77 29 88 8 108 -16 17 -21 17
-124 6z m116 -25 c17 -43 -77 -232 -157 -315 -75 -78 -228 -164 -259 -145 -14
9 -6 82 21 183 44 168 117 252 237 278 82 18 151 17 158 -1z"/>
</g>
</svg>
